<svg width="24" height="24" viewBox="0 0 24 24" fill="none" xmlns="http://www.w3.org/2000/svg">
<path fill-rule="evenodd" clip-rule="evenodd" d="M13.7193 2.46995C13.86 2.3295 14.0506 2.25061 14.2493 2.25061C14.4481 2.25061 14.6387 2.3295 14.7793 2.46995L19.2793 6.96995C19.4198 7.11058 19.4987 7.3012 19.4987 7.49995C19.4987 7.6987 19.4198 7.88932 19.2793 8.02995L14.7793 12.53C14.7107 12.6036 14.6279 12.6627 14.5359 12.7037C14.4439 12.7447 14.3446 12.7668 14.2439 12.7685C14.1432 12.7703 14.0431 12.7518 13.9497 12.7141C13.8564 12.6764 13.7715 12.6202 13.7003 12.549C13.6291 12.4778 13.5729 12.3929 13.5352 12.2995C13.4975 12.2062 13.479 12.1061 13.4807 12.0054C13.4825 11.9047 13.5046 11.8054 13.5456 11.7134C13.5866 11.6214 13.6457 11.5386 13.7193 11.47L16.9393 8.24995H5.24934C5.05043 8.24995 4.85966 8.17093 4.71901 8.03028C4.57836 7.88963 4.49934 7.69886 4.49934 7.49995C4.49934 7.30104 4.57836 7.11027 4.71901 6.96962C4.85966 6.82897 5.05043 6.74995 5.24934 6.74995H16.9393L13.7193 3.52995C13.5789 3.38933 13.5 3.1987 13.5 2.99995C13.5 2.8012 13.5789 2.61058 13.7193 2.46995ZM5.77934 11.47C5.91979 11.6106 5.99868 11.8012 5.99868 12C5.99868 12.1987 5.91979 12.3893 5.77934 12.53L2.55934 15.75H14.2493C14.4483 15.75 14.639 15.829 14.7797 15.9696C14.9203 16.1103 14.9993 16.301 14.9993 16.5C14.9993 16.6989 14.9203 16.8896 14.7797 17.0303C14.639 17.1709 14.4483 17.25 14.2493 17.25H2.55934L5.77934 20.4699C5.85303 20.5386 5.91213 20.6214 5.95312 20.7134C5.99411 20.8054 6.01616 20.9047 6.01793 21.0054C6.01971 21.1061 6.00118 21.2062 5.96346 21.2995C5.92574 21.3929 5.8696 21.4778 5.79838 21.549C5.72716 21.6202 5.64233 21.6764 5.54894 21.7141C5.45555 21.7518 5.35552 21.7703 5.25482 21.7685C5.15411 21.7668 5.0548 21.7447 4.9628 21.7037C4.8708 21.6627 4.788 21.6036 4.71934 21.53L0.21934 17.03C0.0788896 16.8893 0 16.6987 0 16.5C0 16.3012 0.0788896 16.1106 0.21934 15.97L4.71934 11.47C4.85997 11.3295 5.05059 11.2506 5.24934 11.2506C5.44809 11.2506 5.63871 11.3295 5.77934 11.47Z" fill="#0FA958"/>
</svg>
