<svg width="31" height="32" viewBox="0 0 31 32" fill="none" xmlns="http://www.w3.org/2000/svg">
<path d="M17.2885 24C17.2885 24.3651 17.1836 24.7221 16.9871 25.0257C16.7905 25.3293 16.5112 25.5659 16.1844 25.7056C15.8576 25.8453 15.498 25.8819 15.1511 25.8107C14.8042 25.7394 14.4855 25.5636 14.2354 25.3054C13.9852 25.0472 13.8149 24.7183 13.7459 24.3602C13.6769 24.002 13.7123 23.6308 13.8477 23.2935C13.983 22.9562 14.2123 22.6678 14.5064 22.465C14.8005 22.2621 15.1463 22.1538 15.5 22.1538C15.9743 22.1538 16.4292 22.3483 16.7646 22.6946C17.1 23.0408 17.2885 23.5104 17.2885 24ZM15.5 7.38461C12.2122 7.38461 9.53847 9.86923 9.53847 12.9231V13.5385C9.53847 13.8649 9.66408 14.1779 9.88769 14.4087C10.1113 14.6396 10.4146 14.7692 10.7308 14.7692C11.047 14.7692 11.3503 14.6396 11.5739 14.4087C11.7975 14.1779 11.9231 13.8649 11.9231 13.5385V12.9231C11.9231 11.2308 13.5282 9.84615 15.5 9.84615C17.4718 9.84615 19.0769 11.2308 19.0769 12.9231C19.0769 14.6154 17.4718 16 15.5 16C15.1838 16 14.8805 16.1297 14.6569 16.3605C14.4333 16.5913 14.3077 16.9043 14.3077 17.2308V18.4615C14.3077 18.788 14.4333 19.101 14.6569 19.3318C14.8805 19.5626 15.1838 19.6923 15.5 19.6923C15.8162 19.6923 16.1195 19.5626 16.3431 19.3318C16.5667 19.101 16.6923 18.788 16.6923 18.4615V18.3508C19.4108 17.8354 21.4615 15.5969 21.4615 12.9231C21.4615 9.86923 18.7878 7.38461 15.5 7.38461ZM31 16C31 19.1645 30.0909 22.2579 28.3878 24.8891C26.6846 27.5203 24.2638 29.5711 21.4316 30.7821C18.5993 31.9931 15.4828 32.3099 12.4761 31.6926C9.4694 31.0752 6.70756 29.5513 4.53985 27.3137C2.37214 25.0761 0.895906 22.2251 0.297835 19.1214C-0.300236 16.0177 0.00671591 12.8007 1.17987 9.87706C2.35303 6.95345 4.33971 4.45459 6.88867 2.69649C9.43763 0.938383 12.4344 0 15.5 0C19.6095 0.00447972 23.5495 1.69163 26.4554 4.69124C29.3612 7.69085 30.9957 11.7579 31 16ZM28.6154 16C28.6154 13.3223 27.8462 10.7048 26.405 8.47843C24.9639 6.25204 22.9156 4.51679 20.519 3.49209C18.1225 2.4674 15.4855 2.19929 12.9413 2.72168C10.3972 3.24406 8.06025 4.53347 6.22603 6.42686C4.39181 8.32025 3.14269 10.7326 2.63663 13.3588C2.13057 15.985 2.3903 18.7071 3.38297 21.1809C4.37564 23.6548 6.05667 25.7692 8.21349 27.2568C10.3703 28.7444 12.906 29.5385 15.5 29.5385C18.9772 29.5344 22.3109 28.1067 24.7696 25.5686C27.2284 23.0306 28.6114 19.5894 28.6154 16Z" fill="#0F3F62"/>
</svg>
